<?xml version="1.0" encoding="UTF-8" standalone="no"?>
<!DOCTYPE svg PUBLIC "-//W3C//DTD SVG 1.1//EN"
 "http://www.w3.org/Graphics/SVG/1.1/DTD/svg11.dtd">
<!-- Generated by graphviz version 2.44.1 (20200629.0846)
 -->
<!-- Title: G Pages: 1 -->
<svg width="634pt" height="201pt"
 viewBox="0.00 0.00 633.97 201.00" xmlns="http://www.w3.org/2000/svg" xmlns:xlink="http://www.w3.org/1999/xlink">
<g id="graph0" class="graph" transform="scale(1 1) rotate(0) translate(4 197)">
<title>G</title>
<polygon fill="white" stroke="transparent" points="-4,4 -4,-197 629.97,-197 629.97,4 -4,4"/>
<!-- oslo -->
<g id="node1" class="node">
<title>oslo</title>
<ellipse fill="none" stroke="black" cx="231.84" cy="-154" rx="27" ry="18"/>
<text text-anchor="middle" x="231.84" y="-150.3" font-family="Times,serif" font-size="14.00">oslo</text>
</g>
<!-- trondheim -->
<g id="node5" class="node">
<title>trondheim</title>
<ellipse fill="none" stroke="black" cx="420.13" cy="-86" rx="47.39" ry="18"/>
<text text-anchor="middle" x="420.13" y="-82.3" font-family="Times,serif" font-size="14.00">trondheim</text>
</g>
<!-- oslo&#45;&gt;trondheim -->
<g id="edge4" class="edge">
<title>oslo&#45;&gt;trondheim</title>
<path fill="none" stroke="blue" d="M258.98,-152.6C284.31,-150.49 323.39,-145.2 354.68,-132 368.21,-126.29 381.66,-117.34 392.75,-108.85"/>
<polygon fill="blue" stroke="blue" points="395.08,-111.47 400.73,-102.51 390.73,-105.99 395.08,-111.47"/>
<text text-anchor="middle" x="324.68" y="-180.8" font-family="Times,serif" font-size="14.00">cost: 4,</text>
<text text-anchor="middle" x="324.68" y="-165.8" font-family="Times,serif" font-size="14.00">capacity: 2</text>
<text text-anchor="middle" x="324.68" y="-150.8" font-family="Times,serif" font-size="14.00">flow: 1</text>
</g>
<!-- drammen -->
<g id="node2" class="node">
<title>drammen</title>
<ellipse fill="none" stroke="black" cx="231.84" cy="-86" rx="44.69" ry="18"/>
<text text-anchor="middle" x="231.84" y="-82.3" font-family="Times,serif" font-size="14.00">drammen</text>
</g>
<!-- drammen&#45;&gt;trondheim -->
<g id="edge5" class="edge">
<title>drammen&#45;&gt;trondheim</title>
<path fill="none" stroke="blue" d="M276.99,-86C302.46,-86 334.77,-86 362.14,-86"/>
<polygon fill="blue" stroke="blue" points="362.37,-89.5 372.37,-86 362.37,-82.5 362.37,-89.5"/>
<text text-anchor="middle" x="324.68" y="-119.8" font-family="Times,serif" font-size="14.00">cost: 1,</text>
<text text-anchor="middle" x="324.68" y="-104.8" font-family="Times,serif" font-size="14.00">capacity: 2</text>
<text text-anchor="middle" x="324.68" y="-89.8" font-family="Times,serif" font-size="14.00">flow: 1</text>
</g>
<!-- bergen -->
<g id="node3" class="node">
<title>bergen</title>
<ellipse fill="none" stroke="black" cx="231.84" cy="-18" rx="34.39" ry="18"/>
<text text-anchor="middle" x="231.84" y="-14.3" font-family="Times,serif" font-size="14.00">bergen</text>
</g>
<!-- bergen&#45;&gt;trondheim -->
<g id="edge6" class="edge">
<title>bergen&#45;&gt;trondheim</title>
<path fill="none" stroke="black" d="M266.37,-18.81C291.55,-20.46 326.42,-24.97 354.68,-37 369.05,-43.11 383.07,-53.14 394.36,-62.54"/>
<polygon fill="black" stroke="black" points="392.2,-65.3 402.05,-69.21 396.78,-60.01 392.2,-65.3"/>
<text text-anchor="middle" x="324.68" y="-70.8" font-family="Times,serif" font-size="14.00">cost: 8,</text>
<text text-anchor="middle" x="324.68" y="-55.8" font-family="Times,serif" font-size="14.00">capacity: 1</text>
<text text-anchor="middle" x="324.68" y="-40.8" font-family="Times,serif" font-size="14.00">flow: 0</text>
</g>
<!-- SOURCE -->
<g id="node4" class="node">
<title>SOURCE</title>
<ellipse fill="none" stroke="black" cx="45.5" cy="-86" rx="45.49" ry="18"/>
<text text-anchor="middle" x="45.5" y="-82.3" font-family="Times,serif" font-size="14.00">SOURCE</text>
</g>
<!-- SOURCE&#45;&gt;oslo -->
<g id="edge1" class="edge">
<title>SOURCE&#45;&gt;oslo</title>
<path fill="none" stroke="blue" d="M64.25,-102.52C76.06,-112.59 92.41,-124.86 108.99,-132 136.29,-143.75 169.64,-149.23 194.54,-151.78"/>
<polygon fill="blue" stroke="blue" points="194.38,-155.28 204.66,-152.7 195.02,-148.31 194.38,-155.28"/>
<text text-anchor="middle" x="138.99" y="-181.8" font-family="Times,serif" font-size="14.00">cost: 2,</text>
<text text-anchor="middle" x="138.99" y="-166.8" font-family="Times,serif" font-size="14.00">capacity: 2</text>
<text text-anchor="middle" x="138.99" y="-151.8" font-family="Times,serif" font-size="14.00">flow: 1</text>
</g>
<!-- SOURCE&#45;&gt;drammen -->
<g id="edge2" class="edge">
<title>SOURCE&#45;&gt;drammen</title>
<path fill="none" stroke="red" d="M91.12,-86C116.91,-86 149.55,-86 176.79,-86"/>
<polygon fill="red" stroke="red" points="176.94,-89.5 186.94,-86 176.94,-82.5 176.94,-89.5"/>
<text text-anchor="middle" x="138.99" y="-119.8" font-family="Times,serif" font-size="14.00">cost: 1,</text>
<text text-anchor="middle" x="138.99" y="-104.8" font-family="Times,serif" font-size="14.00">capacity: 1</text>
<text text-anchor="middle" x="138.99" y="-89.8" font-family="Times,serif" font-size="14.00">flow: 1</text>
</g>
<!-- SOURCE&#45;&gt;bergen -->
<g id="edge3" class="edge">
<title>SOURCE&#45;&gt;bergen</title>
<path fill="none" stroke="black" d="M62.97,-69.2C74.74,-58.23 91.54,-44.58 108.99,-37 133.54,-26.34 163.16,-21.56 187.06,-19.46"/>
<polygon fill="black" stroke="black" points="187.54,-22.93 197.25,-18.69 187.02,-15.95 187.54,-22.93"/>
<text text-anchor="middle" x="138.99" y="-70.8" font-family="Times,serif" font-size="14.00">cost: 2,</text>
<text text-anchor="middle" x="138.99" y="-55.8" font-family="Times,serif" font-size="14.00">capacity: 2</text>
<text text-anchor="middle" x="138.99" y="-40.8" font-family="Times,serif" font-size="14.00">flow: 0</text>
</g>
<!-- SINK -->
<g id="node6" class="node">
<title>SINK</title>
<ellipse fill="none" stroke="black" cx="594.77" cy="-86" rx="31.4" ry="18"/>
<text text-anchor="middle" x="594.77" y="-82.3" font-family="Times,serif" font-size="14.00">SINK</text>
</g>
<!-- trondheim&#45;&gt;SINK -->
<g id="edge7" class="edge">
<title>trondheim&#45;&gt;SINK</title>
<path fill="none" stroke="red" d="M467.85,-86C494.53,-86 527.66,-86 553.24,-86"/>
<polygon fill="red" stroke="red" points="553.34,-89.5 563.34,-86 553.34,-82.5 553.34,-89.5"/>
<text text-anchor="middle" x="515.58" y="-119.8" font-family="Times,serif" font-size="14.00">cost: 2,</text>
<text text-anchor="middle" x="515.58" y="-104.8" font-family="Times,serif" font-size="14.00">capacity: 2</text>
<text text-anchor="middle" x="515.58" y="-89.8" font-family="Times,serif" font-size="14.00">flow: 2</text>
</g>
</g>
</svg>
