<?xml version="1.0" encoding="UTF-8" standalone="no"?>
<!DOCTYPE svg PUBLIC "-//W3C//DTD SVG 1.1//EN"
 "http://www.w3.org/Graphics/SVG/1.1/DTD/svg11.dtd">
<!-- Generated by graphviz version 2.44.1 (20200629.0846)
 -->
<!-- Title: G Pages: 1 -->
<svg width="741pt" height="439pt"
 viewBox="0.00 0.00 741.07 439.15" xmlns="http://www.w3.org/2000/svg" xmlns:xlink="http://www.w3.org/1999/xlink">
<g id="graph0" class="graph" transform="scale(1 1) rotate(0) translate(4 435.15)">
<title>G</title>
<polygon fill="white" stroke="transparent" points="-4,4 -4,-435.15 737.07,-435.15 737.07,4 -4,4"/>
<!-- Xanthippe -->
<g id="node1" class="node">
<title>Xanthippe</title>
<ellipse fill="none" stroke="black" cx="211.44" cy="-275.15" rx="47.39" ry="18"/>
<text text-anchor="middle" x="211.44" y="-271.45" font-family="Times,serif" font-size="14.00">Xanthippe</text>
</g>
<!-- Accounting -->
<g id="node4" class="node">
<title>Accounting</title>
<ellipse fill="none" stroke="black" cx="541.78" cy="-324.15" rx="51.99" ry="18"/>
<text text-anchor="middle" x="541.78" y="-320.45" font-family="Times,serif" font-size="14.00">Accounting</text>
</g>
<!-- Xanthippe&#45;&gt;Accounting -->
<g id="edge1" class="edge">
<title>Xanthippe&#45;&gt;Accounting</title>
<path fill="none" stroke="black" d="M218.64,-293.01C229.31,-320.66 254.02,-372.93 294.88,-395.15 355.41,-428.05 385.06,-418.45 449.88,-395.15 476.36,-385.63 501.15,-365.18 518.13,-348.66"/>
<polygon fill="black" stroke="black" points="520.78,-350.95 525.36,-341.4 515.82,-346.01 520.78,-350.95"/>
<text text-anchor="middle" x="372.38" y="-419.95" font-family="Times,serif" font-size="14.00">4</text>
</g>
<!-- Bicycles -->
<g id="node5" class="node">
<title>Bicycles</title>
<ellipse fill="none" stroke="black" cx="541.78" cy="-219.15" rx="40.89" ry="18"/>
<text text-anchor="middle" x="541.78" y="-215.45" font-family="Times,serif" font-size="14.00">Bicycles</text>
</g>
<!-- Xanthippe&#45;&gt;Bicycles -->
<g id="edge2" class="edge">
<title>Xanthippe&#45;&gt;Bicycles</title>
<path fill="none" stroke="black" d="M223.92,-292.82C237.95,-312.65 263.71,-343.79 294.88,-357.15 327.98,-371.33 342.08,-371.56 375.88,-359.15 438.28,-336.23 493.22,-278.08 521.19,-244.37"/>
<polygon fill="black" stroke="black" points="524.11,-246.33 527.7,-236.36 518.68,-241.91 524.11,-246.33"/>
<text text-anchor="middle" x="372.38" y="-364.95" font-family="Times,serif" font-size="14.00">2</text>
</g>
<!-- Construction -->
<g id="node6" class="node">
<title>Construction</title>
<ellipse fill="none" stroke="black" cx="541.78" cy="-145.15" rx="55.79" ry="18"/>
<text text-anchor="middle" x="541.78" y="-141.45" font-family="Times,serif" font-size="14.00">Construction</text>
</g>
<!-- Xanthippe&#45;&gt;Construction -->
<g id="edge3" class="edge">
<title>Xanthippe&#45;&gt;Construction</title>
<path fill="none" stroke="red" d="M256.5,-269.14C290,-263.69 336.84,-254.18 375.88,-239.15 424.94,-220.27 476.88,-188.42 509.06,-167.1"/>
<polygon fill="red" stroke="red" points="511.24,-169.85 517.6,-161.38 507.34,-164.04 511.24,-169.85"/>
<text text-anchor="middle" x="372.38" y="-244.95" font-family="Times,serif" font-size="14.00">1</text>
</g>
<!-- Dentistry -->
<g id="node7" class="node">
<title>Dentistry</title>
<ellipse fill="none" stroke="black" cx="541.78" cy="-50.15" rx="43.59" ry="18"/>
<text text-anchor="middle" x="541.78" y="-46.45" font-family="Times,serif" font-size="14.00">Dentistry</text>
</g>
<!-- Xanthippe&#45;&gt;Dentistry -->
<g id="edge4" class="edge">
<title>Xanthippe&#45;&gt;Dentistry</title>
<path fill="none" stroke="black" d="M238.71,-260.4C245.36,-256.52 252.44,-252.27 258.88,-248.15 308.55,-216.35 449,-116.03 510.88,-71.64"/>
<polygon fill="black" stroke="black" points="512.99,-74.43 519.07,-65.76 508.9,-68.75 512.99,-74.43"/>
<text text-anchor="middle" x="372.38" y="-175.95" font-family="Times,serif" font-size="14.00">3</text>
</g>
<!-- Yazoo -->
<g id="node2" class="node">
<title>Yazoo</title>
<ellipse fill="none" stroke="black" cx="211.44" cy="-221.15" rx="33.29" ry="18"/>
<text text-anchor="middle" x="211.44" y="-217.45" font-family="Times,serif" font-size="14.00">Yazoo</text>
</g>
<!-- Yazoo&#45;&gt;Accounting -->
<g id="edge5" class="edge">
<title>Yazoo&#45;&gt;Accounting</title>
<path fill="none" stroke="black" d="M237.95,-232.51C245.34,-236.67 252.99,-241.91 258.88,-248.15 283.17,-273.87 264.99,-300.23 294.88,-319.15 324.7,-338.02 418.53,-334.61 481.28,-329.82"/>
<polygon fill="black" stroke="black" points="481.76,-333.29 491.45,-329.01 481.21,-326.31 481.76,-333.29"/>
<text text-anchor="middle" x="372.38" y="-336.95" font-family="Times,serif" font-size="14.00">3</text>
</g>
<!-- Yazoo&#45;&gt;Bicycles -->
<g id="edge6" class="edge">
<title>Yazoo&#45;&gt;Bicycles</title>
<path fill="none" stroke="red" d="M244.82,-220.95C302.3,-220.6 422.5,-219.87 490.71,-219.45"/>
<polygon fill="red" stroke="red" points="490.81,-222.95 500.79,-219.39 490.77,-215.95 490.81,-222.95"/>
<text text-anchor="middle" x="372.38" y="-223.95" font-family="Times,serif" font-size="14.00">1</text>
</g>
<!-- Yazoo&#45;&gt;Construction -->
<g id="edge7" class="edge">
<title>Yazoo&#45;&gt;Construction</title>
<path fill="none" stroke="black" d="M237.05,-209.64C244.57,-205.42 252.52,-200.18 258.88,-194.15 280.08,-174.04 271.56,-156.74 294.88,-139.15 322.38,-118.41 334.83,-121.32 368.88,-116.15 411.23,-109.72 459.29,-119.26 493.81,-129.08"/>
<polygon fill="black" stroke="black" points="493.03,-132.5 503.62,-131.98 495.02,-125.79 493.03,-132.5"/>
<text text-anchor="middle" x="372.38" y="-119.95" font-family="Times,serif" font-size="14.00">2</text>
</g>
<!-- Yazoo&#45;&gt;Dentistry -->
<g id="edge8" class="edge">
<title>Yazoo&#45;&gt;Dentistry</title>
<path fill="none" stroke="black" d="M237.17,-209.76C244.69,-205.55 252.62,-200.28 258.88,-194.15 280.83,-172.66 276.05,-159.42 294.88,-135.15 323.79,-97.9 325.94,-78.61 368.88,-59.15 407.03,-41.86 454.94,-40.8 490.48,-43.39"/>
<polygon fill="black" stroke="black" points="490.36,-46.89 500.62,-44.25 490.95,-39.92 490.36,-46.89"/>
<text text-anchor="middle" x="372.38" y="-62.95" font-family="Times,serif" font-size="14.00">4</text>
</g>
<!-- Zamboni -->
<g id="node3" class="node">
<title>Zamboni</title>
<ellipse fill="none" stroke="black" cx="211.44" cy="-167.15" rx="42.79" ry="18"/>
<text text-anchor="middle" x="211.44" y="-163.45" font-family="Times,serif" font-size="14.00">Zamboni</text>
</g>
<!-- Zamboni&#45;&gt;Accounting -->
<g id="edge9" class="edge">
<title>Zamboni&#45;&gt;Accounting</title>
<path fill="none" stroke="black" d="M237.54,-181.66C244.47,-185.68 251.98,-190.07 258.88,-194.15 307.97,-223.14 317.51,-235.43 368.88,-260.15 409.67,-279.77 458.16,-297.33 493.22,-309.07"/>
<polygon fill="black" stroke="black" points="492.14,-312.4 502.73,-312.23 494.34,-305.76 492.14,-312.4"/>
<text text-anchor="middle" x="372.38" y="-266.95" font-family="Times,serif" font-size="14.00">2</text>
</g>
<!-- Zamboni&#45;&gt;Bicycles -->
<g id="edge10" class="edge">
<title>Zamboni&#45;&gt;Bicycles</title>
<path fill="none" stroke="black" d="M251.72,-173.37C312.15,-182.94 427.75,-201.25 492.96,-211.57"/>
<polygon fill="black" stroke="black" points="492.55,-215.05 502.97,-213.16 493.65,-208.14 492.55,-215.05"/>
<text text-anchor="middle" x="372.38" y="-196.95" font-family="Times,serif" font-size="14.00">4</text>
</g>
<!-- Zamboni&#45;&gt;Construction -->
<g id="edge11" class="edge">
<title>Zamboni&#45;&gt;Construction</title>
<path fill="none" stroke="black" d="M229.09,-150.66C244.85,-135.86 269.78,-114.48 294.88,-101.15 325.3,-84.99 334.83,-83.32 368.88,-78.15 421.21,-70.2 477.6,-100.43 511.01,-122.86"/>
<polygon fill="black" stroke="black" points="509.18,-125.85 519.4,-128.65 513.16,-120.09 509.18,-125.85"/>
<text text-anchor="middle" x="372.38" y="-81.95" font-family="Times,serif" font-size="14.00">3</text>
</g>
<!-- Zamboni&#45;&gt;Dentistry -->
<g id="edge12" class="edge">
<title>Zamboni&#45;&gt;Dentistry</title>
<path fill="none" stroke="red" d="M218.09,-149C228.42,-118.83 253.2,-58.38 294.88,-25.15 355.21,22.95 452.1,-8.85 504.43,-32.04"/>
<polygon fill="red" stroke="red" points="503.11,-35.29 513.67,-36.25 506.02,-28.92 503.11,-35.29"/>
<text text-anchor="middle" x="372.38" y="-4.95" font-family="Times,serif" font-size="14.00">1</text>
</g>
<!-- SINK -->
<g id="node9" class="node">
<title>SINK</title>
<ellipse fill="none" stroke="black" cx="701.87" cy="-171.15" rx="31.4" ry="18"/>
<text text-anchor="middle" x="701.87" y="-167.45" font-family="Times,serif" font-size="14.00">SINK</text>
</g>
<!-- Accounting&#45;&gt;SINK -->
<g id="edge16" class="edge">
<title>Accounting&#45;&gt;SINK</title>
<path fill="none" stroke="black" d="M560.3,-307.19C588.91,-279.5 645.65,-224.59 677.6,-193.67"/>
<polygon fill="black" stroke="black" points="680.41,-195.82 685.16,-186.35 675.54,-190.79 680.41,-195.82"/>
</g>
<!-- Bicycles&#45;&gt;SINK -->
<g id="edge17" class="edge">
<title>Bicycles&#45;&gt;SINK</title>
<path fill="none" stroke="red" d="M575.92,-209.09C601.69,-201.26 637.43,-190.41 664.08,-182.32"/>
<polygon fill="red" stroke="red" points="665.26,-185.62 673.81,-179.36 663.23,-178.92 665.26,-185.62"/>
</g>
<!-- Construction&#45;&gt;SINK -->
<g id="edge18" class="edge">
<title>Construction&#45;&gt;SINK</title>
<path fill="none" stroke="red" d="M591.93,-153.23C614.37,-156.92 640.57,-161.23 661.65,-164.7"/>
<polygon fill="red" stroke="red" points="661.12,-168.16 671.55,-166.33 662.25,-161.25 661.12,-168.16"/>
</g>
<!-- Dentistry&#45;&gt;SINK -->
<g id="edge19" class="edge">
<title>Dentistry&#45;&gt;SINK</title>
<path fill="none" stroke="red" d="M563.45,-65.97C591.75,-87.63 642.63,-126.57 673.9,-150.51"/>
<polygon fill="red" stroke="red" points="672.1,-153.53 682.17,-156.83 676.35,-147.98 672.1,-153.53"/>
</g>
<!-- SOURCE -->
<g id="node8" class="node">
<title>SOURCE</title>
<ellipse fill="none" stroke="black" cx="45.5" cy="-221.15" rx="45.49" ry="18"/>
<text text-anchor="middle" x="45.5" y="-217.45" font-family="Times,serif" font-size="14.00">SOURCE</text>
</g>
<!-- SOURCE&#45;&gt;Xanthippe -->
<g id="edge13" class="edge">
<title>SOURCE&#45;&gt;Xanthippe</title>
<path fill="none" stroke="red" d="M81.26,-232.6C105.77,-240.67 138.81,-251.55 165.34,-260.29"/>
<polygon fill="red" stroke="red" points="164.56,-263.72 175.15,-263.53 166.75,-257.07 164.56,-263.72"/>
</g>
<!-- SOURCE&#45;&gt;Yazoo -->
<g id="edge14" class="edge">
<title>SOURCE&#45;&gt;Yazoo</title>
<path fill="none" stroke="red" d="M91.29,-221.15C115.24,-221.15 144.56,-221.15 168.12,-221.15"/>
<polygon fill="red" stroke="red" points="168.17,-224.65 178.17,-221.15 168.17,-217.65 168.17,-224.65"/>
</g>
<!-- SOURCE&#45;&gt;Zamboni -->
<g id="edge15" class="edge">
<title>SOURCE&#45;&gt;Zamboni</title>
<path fill="none" stroke="red" d="M81.26,-209.7C106.46,-201.4 140.68,-190.12 167.57,-181.27"/>
<polygon fill="red" stroke="red" points="168.72,-184.57 177.12,-178.12 166.53,-177.93 168.72,-184.57"/>
</g>
</g>
</svg>
